<svg width="20" height="20" viewBox="0 0 20 20" fill="none" xmlns="http://www.w3.org/2000/svg">
<path d="M16.9132 8.16327L10.6632 14.4133C10.5762 14.5007 10.4727 14.57 10.3587 14.6173C10.2447 14.6646 10.1226 14.689 9.99918 14.689C9.8758 14.689 9.75362 14.6646 9.63967 14.6173C9.52571 14.57 9.42222 14.5007 9.33512 14.4133L3.08512 8.16327C2.909 7.98715 2.81006 7.74827 2.81006 7.4992C2.81006 7.25013 2.909 7.01126 3.08512 6.83514C3.26124 6.65902 3.50011 6.56008 3.74918 6.56008C3.99826 6.56008 4.23713 6.65902 4.41325 6.83514L9.99997 12.4219L15.5867 6.83436C15.7628 6.65824 16.0017 6.5593 16.2507 6.5593C16.4998 6.5593 16.7387 6.65824 16.9148 6.83436C17.0909 7.01048 17.1899 7.24935 17.1899 7.49842C17.1899 7.74749 17.0909 7.98636 16.9148 8.16248L16.9132 8.16327Z" fill="#475569" style="fill:#475569;fill:color(display-p3 0.2784 0.3333 0.4118);fill-opacity:1;"/>
</svg>
