<svg width="19" height="19" viewBox="0 0 19 19" fill="none" xmlns="http://www.w3.org/2000/svg">
<path d="M12.125 12.5625C11.8929 12.5625 11.6704 12.4703 11.5063 12.3062C11.3422 12.1421 11.25 11.9196 11.25 11.6875C11.25 11.4554 11.3422 11.2329 11.5063 11.0688C11.6704 10.9047 11.8929 10.8125 12.125 10.8125C12.9151 10.8121 13.6903 10.5978 14.3684 10.1923C15.0465 9.78678 15.6022 9.2052 15.9763 8.50932C16.3505 7.81343 16.5292 7.0292 16.4935 6.23991C16.4578 5.45062 16.2091 4.68572 15.7736 4.02643C15.3382 3.36715 14.7324 2.83808 14.0205 2.4954C13.3085 2.15273 12.5171 2.00924 11.7302 2.08017C10.9433 2.1511 10.1903 2.4338 9.55112 2.89826C8.91196 3.36272 8.4105 3.9916 8.09999 4.71813L7.46999 6.19338L5.94574 5.69288C5.58505 5.57475 5.20302 5.53625 4.82601 5.58002C4.44899 5.6238 4.08595 5.74881 3.76192 5.94644C3.43788 6.14407 3.16056 6.40962 2.94907 6.72478C2.73757 7.03994 2.59694 7.39722 2.53686 7.77198C2.47678 8.14675 2.49868 8.53008 2.60106 8.89556C2.70344 9.26104 2.88385 9.59997 3.12987 9.88899C3.37589 10.178 3.68165 10.4102 4.02609 10.5697C4.37053 10.7291 4.74545 10.812 5.12499 10.8125H6.87499C7.10706 10.8125 7.32962 10.9047 7.49371 11.0688C7.6578 11.2329 7.74999 11.4554 7.74999 11.6875C7.74999 11.9196 7.6578 12.1421 7.49371 12.3062C7.32962 12.4703 7.10706 12.5625 6.87499 12.5625H5.12499C4.49217 12.5621 3.86696 12.4245 3.29249 12.1591C2.71802 11.8937 2.20796 11.5068 1.79751 11.0251C1.38706 10.5435 1.08599 9.97852 0.91506 9.36922C0.74413 8.75992 0.707415 8.12079 0.807447 7.49593C0.907479 6.87107 1.14188 6.27534 1.49447 5.74985C1.84706 5.22436 2.30946 4.78161 2.84976 4.45216C3.39006 4.1227 3.99539 3.91438 4.62401 3.84156C5.25263 3.76874 5.88956 3.83316 6.49087 4.03038C7.04612 2.7333 8.03203 1.66762 9.28207 1.01333C10.5321 0.359037 11.9697 0.15624 13.3519 0.439192C14.7342 0.722144 15.9764 1.4735 16.8688 2.56636C17.7612 3.65921 18.2491 5.02658 18.25 6.4375C18.25 8.06195 17.6047 9.61987 16.456 10.7685C15.3074 11.9172 13.7494 12.5625 12.125 12.5625ZM10.1212 9.9935C10.5754 10.1667 10.8099 10.6944 10.6445 11.1712L9.44749 14.6275C9.28124 15.1044 8.77987 15.3502 8.32574 15.1761C7.87162 15.0029 7.63799 14.4753 7.80337 13.9984L9.00037 10.5421C9.16487 10.0653 9.66712 9.81938 10.1212 9.9935ZM11.5492 13.4489C12.0034 13.6221 12.237 14.1497 12.0716 14.6266L10.8746 18.0829C10.7101 18.5597 10.2079 18.8056 9.75374 18.6315C9.29962 18.4583 9.06512 17.9306 9.23049 17.4538L10.4275 13.9975C10.5937 13.5206 11.0951 13.2747 11.5492 13.4489ZM8.62499 13.3929H11.25C11.733 13.3929 12.125 13.8041 12.125 14.3125C12.125 14.82 11.733 15.2312 11.25 15.2312H8.62499C8.14199 15.2312 7.74999 14.82 7.74999 14.3125C7.74999 13.805 8.14199 13.3938 8.62499 13.3938V13.3929Z" fill="#076C80" style="fill:#076C80;fill:color(display-p3 0.0275 0.4235 0.5020);fill-opacity:1;"/>
</svg>
