<svg width="20" height="21" viewBox="0 0 20 21" fill="none" xmlns="http://www.w3.org/2000/svg">
<path d="M12.1875 10.5C12.1875 10.9326 12.0592 11.3556 11.8188 11.7153C11.5785 12.075 11.2368 12.3554 10.8371 12.521C10.4374 12.6866 9.99757 12.7299 9.57324 12.6455C9.14891 12.5611 8.75913 12.3527 8.45321 12.0468C8.14728 11.7409 7.93894 11.3511 7.85453 10.9268C7.77013 10.5024 7.81345 10.0626 7.97901 9.66288C8.14458 9.26317 8.42496 8.92153 8.78469 8.68116C9.14442 8.44079 9.56735 8.3125 10 8.3125C10.5802 8.3125 11.1366 8.54297 11.5468 8.9532C11.957 9.36344 12.1875 9.91984 12.1875 10.5ZM3.75 8.3125C3.31735 8.3125 2.89442 8.44079 2.53469 8.68116C2.17496 8.92153 1.89458 9.26317 1.72901 9.66288C1.56345 10.0626 1.52013 10.5024 1.60453 10.9268C1.68894 11.3511 1.89728 11.7409 2.2032 12.0468C2.50913 12.3527 2.89891 12.5611 3.32324 12.6455C3.74757 12.7299 4.18741 12.6866 4.58712 12.521C4.98683 12.3554 5.32848 12.075 5.56884 11.7153C5.80921 11.3556 5.9375 10.9326 5.9375 10.5C5.9375 9.91984 5.70703 9.36344 5.2968 8.9532C4.88656 8.54297 4.33016 8.3125 3.75 8.3125ZM16.25 8.3125C15.8174 8.3125 15.3944 8.44079 15.0347 8.68116C14.675 8.92153 14.3946 9.26317 14.229 9.66288C14.0634 10.0626 14.0201 10.5024 14.1045 10.9268C14.1889 11.3511 14.3973 11.7409 14.7032 12.0468C15.0091 12.3527 15.3989 12.5611 15.8232 12.6455C16.2476 12.7299 16.6874 12.6866 17.0871 12.521C17.4868 12.3554 17.8285 12.075 18.0688 11.7153C18.3092 11.3556 18.4375 10.9326 18.4375 10.5C18.4375 10.2127 18.3809 9.92828 18.271 9.66288C18.1611 9.39748 17.9999 9.15633 17.7968 8.9532C17.5937 8.75008 17.3525 8.58895 17.0871 8.47901C16.8217 8.36908 16.5373 8.3125 16.25 8.3125Z" fill="#0F5262" style="fill:#0F5262;fill:color(display-p3 0.0588 0.3216 0.3843);fill-opacity:1;"/>
</svg>
