<svg width="18" height="19" viewBox="0 0 18 19" fill="none" xmlns="http://www.w3.org/2000/svg">
<g clip-path="url(#clip0_8_5786)">
<path d="M5.56799 16.25C5.85874 16.9185 6.33841 17.4876 6.94811 17.8873C7.5578 18.287 8.27096 18.5 8.99999 18.5C9.72903 18.5 10.4422 18.287 11.0519 17.8873C11.6616 17.4876 12.1412 16.9185 12.432 16.25H5.56799Z" fill="#F5F5F5" style="fill:#F5F5F5;fill:color(display-p3 0.9608 0.9608 0.9608);fill-opacity:1;"/>
<path d="M16.7941 9.91175L15.4921 5.6195C15.0752 4.11826 14.1686 2.79934 12.9165 1.87213C11.6644 0.944926 10.1384 0.462593 8.58079 0.501713C7.02321 0.540833 5.52334 1.09916 4.31933 2.08806C3.11531 3.07695 2.27616 4.43973 1.9351 5.96001L0.9241 10.1128C0.789725 10.6646 0.782445 11.2397 0.902808 11.7947C1.02317 12.3498 1.26803 12.8702 1.61892 13.3168C1.9698 13.7634 2.41754 14.1245 2.92834 14.3727C3.43914 14.621 3.99966 14.75 4.5676 14.75H13.2053C13.7909 14.75 14.3683 14.6129 14.8914 14.3497C15.4144 14.0864 15.8685 13.7044 16.2174 13.2341C16.5662 12.7638 16.8001 12.2183 16.9002 11.6414C17.0004 11.0645 16.964 10.4721 16.7941 9.91175Z" fill="#F5F5F5" style="fill:#F5F5F5;fill:color(display-p3 0.9608 0.9608 0.9608);fill-opacity:1;"/>
</g>
<defs>
<clipPath id="clip0_8_5786">
<rect width="18" height="18" fill="white" style="fill:white;fill-opacity:1;" transform="translate(0 0.5)"/>
</clipPath>
</defs>
</svg>
