<svg width="18" height="19" viewBox="0 0 18 19" fill="none" xmlns="http://www.w3.org/2000/svg">
<path d="M17.9655 4.65638L11.652 10.9699C10.948 11.6721 9.99431 12.0664 9 12.0664C8.00569 12.0664 7.05197 11.6721 6.348 10.9699L0.0345 4.65638C0.024 4.77488 0 4.88213 0 4.99988V13.9999C0.00119089 14.9941 0.396661 15.9472 1.09966 16.6502C1.80267 17.3532 2.7558 17.7487 3.75 17.7499H14.25C15.2442 17.7487 16.1973 17.3532 16.9003 16.6502C17.6033 15.9472 17.9988 14.9941 18 13.9999V4.99988C18 4.88213 17.976 4.77488 17.9655 4.65638Z" fill="#F5F5F5" style="fill:#F5F5F5;fill:color(display-p3 0.9608 0.9608 0.9608);fill-opacity:1;"/>
<path d="M10.5915 9.90938L17.442 3.05813C17.1101 2.50787 16.6421 2.05241 16.083 1.73568C15.5239 1.41895 14.8926 1.25163 14.25 1.24988H3.74998C3.1074 1.25163 2.47611 1.41895 1.917 1.73568C1.3579 2.05241 0.889842 2.50787 0.557983 3.05813L7.40848 9.90938C7.83116 10.3304 8.40342 10.5667 8.99998 10.5667C9.59655 10.5667 10.1688 10.3304 10.5915 9.90938Z" fill="#F5F5F5" style="fill:#F5F5F5;fill:color(display-p3 0.9608 0.9608 0.9608);fill-opacity:1;"/>
</svg>
