<svg width="24" height="25" viewBox="0 0 24 25" fill="none" xmlns="http://www.w3.org/2000/svg">
<path d="M4 6.5V12.5C4 12.5 4 15.5 11 15.5C18 15.5 18 12.5 18 12.5V6.5" stroke="#0F5262" style="stroke:#0F5262;stroke:color(display-p3 0.0588 0.3216 0.3843);stroke-opacity:1;" stroke-width="1.5" stroke-linecap="round" stroke-linejoin="round"/>
<path d="M11 3.5C18 3.5 18 6.5 18 6.5C18 6.5 18 9.5 11 9.5C4 9.5 4 6.5 4 6.5C4 6.5 4 3.5 11 3.5Z" stroke="#0F5262" style="stroke:#0F5262;stroke:color(display-p3 0.0588 0.3216 0.3843);stroke-opacity:1;" stroke-width="1.5" stroke-linecap="round" stroke-linejoin="round"/>
<path d="M11 21.5C4 21.5 4 18.5 4 18.5V12.5" stroke="#0F5262" style="stroke:#0F5262;stroke:color(display-p3 0.0588 0.3216 0.3843);stroke-opacity:1;" stroke-width="1.5" stroke-linecap="round" stroke-linejoin="round"/>
<path d="M19 21.5C20.1046 21.5 21 20.6046 21 19.5C21 18.3954 20.1046 17.5 19 17.5C18.6357 17.5 18.2942 17.5974 18 17.7676C17.4022 18.1134 17 18.7597 17 19.5C17 20.2403 17.4022 20.8866 18 21.2324C18.2942 21.4026 18.6357 21.5 19 21.5Z" stroke="#0F5262" style="stroke:#0F5262;stroke:color(display-p3 0.0588 0.3216 0.3843);stroke-opacity:1;" stroke-width="1.5" stroke-linecap="round" stroke-linejoin="round"/>
<path d="M19 22.5C20.6569 22.5 22 21.1569 22 19.5C22 17.8431 20.6569 16.5 19 16.5C17.3431 16.5 16 17.8431 16 19.5C16 21.1569 17.3431 22.5 19 22.5Z" stroke="#0F5262" style="stroke:#0F5262;stroke:color(display-p3 0.0588 0.3216 0.3843);stroke-opacity:1;" stroke-width="1.5" stroke-linecap="round" stroke-linejoin="round" stroke-dasharray="0.3 2"/>
</svg>
