<svg width="24" height="25" viewBox="0 0 24 25" fill="none" xmlns="http://www.w3.org/2000/svg">
<path d="M20 16.5V18.5" stroke="#FF1F13" style="stroke:#FF1F13;stroke:color(display-p3 1.0000 0.1222 0.0729);stroke-opacity:1;" stroke-width="1.5" stroke-linecap="round" stroke-linejoin="round"/>
<path d="M20 22.51L20.01 22.4989" stroke="#FF1F13" style="stroke:#FF1F13;stroke:color(display-p3 1.0000 0.1222 0.0729);stroke-opacity:1;" stroke-width="1.5" stroke-linecap="round" stroke-linejoin="round"/>
<path d="M4 6.5V12.5C4 12.5 4 15.5 11 15.5C18 15.5 18 12.5 18 12.5V6.5" stroke="#FF1F13" style="stroke:#FF1F13;stroke:color(display-p3 1.0000 0.1222 0.0729);stroke-opacity:1;" stroke-width="1.5" stroke-linecap="round" stroke-linejoin="round"/>
<path d="M11 3.5C18 3.5 18 6.5 18 6.5C18 6.5 18 9.5 11 9.5C4 9.5 4 6.5 4 6.5C4 6.5 4 3.5 11 3.5Z" stroke="#FF1F13" style="stroke:#FF1F13;stroke:color(display-p3 1.0000 0.1222 0.0729);stroke-opacity:1;" stroke-width="1.5" stroke-linecap="round" stroke-linejoin="round"/>
<path d="M11 21.5C4 21.5 4 18.5 4 18.5V12.5" stroke="#FF1F13" style="stroke:#FF1F13;stroke:color(display-p3 1.0000 0.1222 0.0729);stroke-opacity:1;" stroke-width="1.5" stroke-linecap="round" stroke-linejoin="round"/>
</svg>
