<svg width="18" height="19" viewBox="0 0 18 19" fill="none" xmlns="http://www.w3.org/2000/svg">
<g clip-path="url(#clip0_8_8023)">
<path d="M6.7522 6.6875C6.7522 7.13505 6.57441 7.56428 6.25794 7.88074C5.94147 8.19721 5.51225 8.375 5.0647 8.375C4.61714 8.375 4.18792 8.19721 3.87145 7.88074C3.55499 7.56428 3.3772 7.13505 3.3772 6.6875C3.3772 6.23995 3.55499 5.81072 3.87145 5.49426C4.18792 5.17779 4.61714 5 5.0647 5C5.51225 5 5.94147 5.17779 6.25794 5.49426C6.57441 5.81072 6.7522 6.23995 6.7522 6.6875Z" fill="#076C80" style="fill:#076C80;fill:color(display-p3 0.0275 0.4235 0.5020);fill-opacity:1;"/>
<path d="M2.2522 1.625C1.65546 1.625 1.08316 1.86205 0.661207 2.28401C0.23925 2.70597 0.00219727 3.27826 0.00219727 3.875V15.125C0.00219727 15.7217 0.23925 16.294 0.661207 16.716C1.08316 17.1379 1.65546 17.375 2.2522 17.375H15.7522C16.3489 17.375 16.9212 17.1379 17.3432 16.716C17.7651 16.294 18.0022 15.7217 18.0022 15.125V3.875C18.0022 3.27826 17.7651 2.70597 17.3432 2.28401C16.9212 1.86205 16.3489 1.625 15.7522 1.625H2.2522ZM15.7522 2.75C16.0506 2.75 16.3367 2.86853 16.5477 3.0795C16.7587 3.29048 16.8772 3.57663 16.8772 3.875V11.1875L12.6281 8.99713C12.5226 8.94428 12.4031 8.92594 12.2866 8.94472C12.1701 8.9635 12.0625 9.01843 11.9789 9.10175L7.8052 13.2755L4.8127 11.282C4.70465 11.2101 4.57505 11.1777 4.44588 11.1904C4.3167 11.2031 4.1959 11.2601 4.10395 11.3517L1.1272 14V3.875C1.1272 3.57663 1.24572 3.29048 1.4567 3.0795C1.66768 2.86853 1.95383 2.75 2.2522 2.75H15.7522Z" fill="#076C80" style="fill:#076C80;fill:color(display-p3 0.0275 0.4235 0.5020);fill-opacity:1;"/>
</g>
<defs>
<clipPath id="clip0_8_8023">
<rect width="18" height="18" fill="white" style="fill:white;fill-opacity:1;" transform="translate(0 0.5)"/>
</clipPath>
</defs>
</svg>
